<?xml version="1.0" encoding="UTF-8"?>
<svg version="1.1" xmlns="http://www.w3.org/2000/svg" width="613" height="490">
<path d="M0 0 C202.29 0 404.58 0 613 0 C613 161.7 613 323.4 613 490 C410.71 490 208.42 490 0 490 C0 328.3 0 166.6 0 0 Z " fill="#FEFEFE" transform="translate(0,0)"/>
<path d="M0 0 C-3.45445682 1.15148561 -3.9855046 0.87005094 -7.2265625 -0.44140625 C-8.08137207 -0.77503174 -8.93618164 -1.10865723 -9.81689453 -1.45239258 C-10.74356934 -1.81872803 -11.67024414 -2.18506348 -12.625 -2.5625 C-23.90555107 -6.85657573 -35.31795875 -9.73317992 -47.08959961 -12.32739258 C-49.96187137 -12.99118829 -52.7922747 -13.75792972 -55.63671875 -14.53125 C-63.55081471 -16.52197125 -71.58679749 -17.34080854 -79.6875 -18.1875 C-80.4992569 -18.27404846 -81.31101379 -18.36059692 -82.14736938 -18.44976807 C-119.13598201 -22.34187273 -156.45451846 -20.15822226 -189.42578125 -1.41796875 C-192 0 -192 0 -195 1 C-189.83407431 6.71407858 -181.97688656 9.2610887 -174.71484375 11.2265625 C-172.36251458 11.89672247 -170.07147009 12.64727453 -167.7578125 13.4375 C-142.18620414 22.01137054 -114.5620195 24.94093116 -87.7824707 27.01220703 C-78.79804691 27.70997102 -69.91780389 28.71734054 -61 30 C-61 30.33 -61 30.66 -61 31 C-65.85287083 31.78259519 -70.5198727 32.13893043 -75.43359375 32.16796875 C-76.4865564 32.17432091 -76.4865564 32.17432091 -77.56079102 32.18080139 C-79.85308796 32.19070743 -82.14518528 32.19070849 -84.4375 32.1875 C-85.23044464 32.18689575 -86.02338928 32.1862915 -86.84036255 32.18566895 C-127.59579806 32.10204399 -169.00836953 28.45335869 -207.87963867 15.58496094 C-215.00570251 13.61903705 -222.19485902 13.81386738 -229.52026367 13.81469727 C-231.66410574 13.81252372 -233.80742145 13.79437059 -235.95117188 13.77539062 C-243.04218036 13.74732554 -249.81868891 14.02220925 -256.77661133 15.5690918 C-259 16 -259 16 -263 16 C-262.94199219 16.58265625 -262.88398438 17.1653125 -262.82421875 17.765625 C-262.52021656 23.28977902 -263.28220206 27.27165319 -265.51953125 32.359375 C-265.98077393 33.42124023 -266.4420166 34.48310547 -266.91723633 35.57714844 C-267.27454834 36.37668945 -267.63186035 37.17623047 -268 38 C-263.56158322 37.94753324 -259.12502531 37.85231888 -254.6875 37.75 C-253.44419922 37.73582031 -252.20089844 37.72164063 -250.91992188 37.70703125 C-243.8012083 37.52018837 -237.91385543 36.72673161 -231.32324219 33.97070312 C-223.70139152 30.78612155 -216.15786383 30.75153714 -208 31 C-210.99004245 32.58911347 -213.97434086 33.69285673 -217.1875 34.75 C-228.7010992 38.92003859 -236.43887197 45.8879772 -242.25 56.625 C-245.70273887 64.05967521 -245.70273887 64.05967521 -248 77 C-258.56 77 -269.12 77 -280 77 C-283.63275505 66.10173486 -287.23446626 51.21993581 -282.25 40 C-281.19124285 37.98836142 -280.04384908 36.07051407 -278.84375 34.140625 C-275.28206038 27.98399008 -275.22297299 21.99324308 -276 15 C-276.78036027 12.47163273 -277.8093669 10.38126619 -279 8 C-279.09375 5.3125 -279.09375 5.3125 -279 3 C-277.94425781 2.9906543 -276.88851562 2.98130859 -275.80078125 2.97167969 C-243.05092484 2.63212579 -213.54941277 1.08087506 -184.6953125 -15.86328125 C-127.41345904 -49.39882518 -53.04673526 -34.15337749 0 0 Z " fill="#242223" transform="translate(376,206)"/>
<path d="M0 0 C7.48839033 5.80778975 13.17968922 13.55258704 15 23 C15.96082812 34.5668924 13.33350933 43.96344822 6 53 C0.25155469 59.48542548 -7.78222791 63.35462796 -16.34765625 64.4140625 C-27.11880041 64.69121475 -35.70445944 61.9458091 -44 55 C-51.05729257 47.73391179 -55.12667351 39.73865759 -55.5 29.5625 C-55.11358058 18.96712881 -51.59138599 11.30310551 -44 4 C-43.43023437 3.4328125 -42.86046875 2.865625 -42.2734375 2.28125 C-31.050018 -8.17344214 -12.67122008 -7.98716081 0 0 Z " fill="#232021" transform="translate(479,254)"/>
<path d="M0 0 C6.57182398 3.53952265 11.11550202 7.62422823 15 14 C15.62068359 14.98226563 15.62068359 14.98226563 16.25390625 15.984375 C20.34221627 23.56270576 20.34898998 32.75545734 18.234375 40.9765625 C14.19531077 51.58712012 7.62245946 59.11619795 -2.6875 63.9375 C-12.19765478 67.55471252 -21.22566652 67.08225139 -30.56640625 63.19140625 C-37.50370665 59.79513559 -41.857277 55.51852092 -46 49 C-46.41636719 48.37867188 -46.83273438 47.75734375 -47.26171875 47.1171875 C-51.419344 39.67722653 -51.21374124 30.2444912 -50 22 C-46.84208664 11.75630931 -40.67950149 4.87972279 -31.5625 -0.4375 C-21.96778732 -4.94556852 -9.49914211 -4.87843538 0 0 Z " fill="#231F20" transform="translate(190,252)"/>
<path d="M0 0 C2.07258508 -0.00062814 4.1451308 -0.00508949 6.21770859 -0.01040649 C47.15162316 -0.07064541 47.15162316 -0.07064541 66.61458969 7.31185913 C67.99710922 7.83199585 67.99710922 7.83199585 69.40755844 8.36264038 C82.49252505 14.08341275 93.04774746 26.40821989 98.57943344 39.33920288 C102.07101161 49.36596131 101.87538941 59.83640375 101.61458969 70.31185913 C99.38108203 66.96159764 98.46279511 63.68917797 97.36458969 59.87435913 C93.17859324 46.15170508 86.91749999 32.50785547 73.96615219 25.07357788 C70.59242391 23.30105267 67.13820529 21.7648068 63.61458969 20.31185913 C62.54741211 19.8412632 62.54741211 19.8412632 61.45867538 19.36116028 C41.29944452 11.92358407 18.45633912 13.74859946 -2.65666246 13.80314898 C-7.77912138 13.81130316 -12.90149476 13.79426692 -18.0239296 13.77940369 C-29.91995893 13.74879412 -41.81590221 13.74707275 -53.71196365 13.74905396 C-68.83050876 13.75045274 -83.94898673 13.73966873 -99.06748426 13.70047623 C-104.13856602 13.6881445 -109.20948 13.68219059 -114.28057098 13.69198418 C-147.08862699 13.75424394 -180.06002251 13.39644688 -211.38541031 2.31185913 C-207.56116208 1.03710972 -204.43339807 1.69864116 -200.53165054 2.2305603 C-190.02565906 3.52071116 -179.6180685 3.61980019 -169.04556656 3.61264038 C-167.01303356 3.61757089 -164.98050173 3.6230107 -162.94797134 3.62892151 C-157.56000418 3.64075498 -152.17215719 3.63740871 -146.78418732 3.62890625 C-143.4243992 3.62432709 -140.06462876 3.62371918 -136.7048378 3.62387085 C-109.84611124 3.61693477 -83.11199785 3.27220248 -56.30121231 1.6000061 C-37.51848249 0.43306445 -18.81343076 -0.00133831 0 0 Z " fill="#242021" transform="translate(419.3854103088379,214.68814086914063)"/>
<path d="M0 0 C1.09731445 0.01353516 1.09731445 0.01353516 2.21679688 0.02734375 C3.99884298 0.05063847 5.78071759 0.0864981 7.5625 0.125 C4.72143762 2.01904159 2.4579112 2.92625932 -0.75 4 C-9.96082731 7.32411747 -16.82544345 12.85701951 -21.765625 21.4296875 C-26.33726519 31.28941895 -26.69644778 40.00921665 -27.4375 51.125 C-91.7875 51.125 -156.1375 51.125 -222.4375 51.125 C-222.7675 46.175 -223.0975 41.225 -223.4375 36.125 C-225.10991922 28.55510246 -227.82332341 23.3018444 -232.4375 17.125 C-233.05625 16.238125 -233.675 15.35125 -234.3125 14.4375 C-236.88302394 11.64016512 -239.73469031 9.54961708 -242.828125 7.359375 C-243.35921875 6.95203125 -243.8903125 6.5446875 -244.4375 6.125 C-244.4375 5.795 -244.4375 5.465 -244.4375 5.125 C-234.6865588 5.76093095 -227.22576736 10.44568461 -220.609375 17.4609375 C-214.95246964 24.39980343 -210.95968011 31.90657975 -207.4375 40.125 C-153.3175 40.455 -99.1975 40.785 -43.4375 41.125 C-42.7775 38.155 -42.1175 35.185 -41.4375 32.125 C-36.32143268 19.10099484 -28.52380503 8.04785365 -15.4375 2.125 C-10.12345802 0.26286848 -5.54478336 -0.13189787 0 0 Z " fill="#242122" transform="translate(442.4375,237.875)"/>
<path d="M0 0 C0.99 0 1.98 0 3 0 C3 0.66 3 1.32 3 2 C8.31822885 3.18858844 8.31822885 3.18858844 13.63916016 4.36499023 C17.21275644 5.15074049 20.77718338 5.94455737 24.328125 6.828125 C50.29084413 13.08580602 77.28899022 12.47345845 103.80169964 12.50611091 C108.99595694 12.51563729 114.1901328 12.54184921 119.38433838 12.56611633 C129.17236268 12.60939969 138.96037085 12.6381789 148.74846101 12.66143972 C159.91218652 12.6886989 171.07582853 12.73259548 182.23949385 12.77772844 C205.15961697 12.87002655 228.07976628 12.94195514 251 13 C251 13.33 251 13.66 251 14 C195.56 14.33 140.12 14.66 83 15 C83 15.66 83 16.32 83 17 C75.53658238 20.73170881 63.3972483 17.44715267 55.5 16.25 C54.27531006 16.06880615 53.05062012 15.8876123 51.78881836 15.70092773 C34.30223249 13.05602297 17.16725779 9.21633681 0 5 C0 3.33333333 0 1.66666667 0 0 Z " fill="#B3B1B2" transform="translate(205,215)"/>
<path d="M0 0 C3.57917728 1.05919552 6.94809613 2.48803014 10.34765625 4.01171875 C11.05220947 4.32488037 11.7567627 4.63804199 12.48266602 4.96069336 C22.05479156 9.24932674 31.21872236 13.72387947 39.78515625 19.82421875 C36.33069943 20.97570436 35.79965165 20.69426969 32.55859375 19.3828125 C31.70313965 19.04902588 30.84768555 18.71523926 29.96630859 18.37133789 C29.04027832 18.00516357 28.11424805 17.63898926 27.16015625 17.26171875 C15.72471223 12.89963623 4.12285463 9.99066514 -7.81494141 7.36157227 C-9.95785113 6.88176105 -12.0872382 6.3673912 -14.21484375 5.82421875 C-14.21484375 5.16421875 -14.21484375 4.50421875 -14.21484375 3.82421875 C-8.58984375 1.82421875 -8.58984375 1.82421875 -5.21484375 1.82421875 C-2.21484375 -0.17578125 -2.21484375 -0.17578125 0 0 Z " fill="#232021" transform="translate(336.21484375,186.17578125)"/>
<path d="M0 0 C1.59847778 0.20568604 1.59847778 0.20568604 3.22924805 0.41552734 C21.16927243 2.51084877 39.17303871 2.4418271 57.20910645 2.60089111 C61.5945542 2.64150282 65.97988373 2.69232828 70.36523438 2.7421875 C78.91007423 2.83788621 87.4549747 2.92261538 96 3 C96 3.33 96 3.66 96 4 C79.5 4.33 63 4.66 46 5 C48.31 5.33 50.62 5.66 53 6 C53 6.99 53 7.98 53 9 C45.37710582 10.52457884 38.27135912 10.1210908 30.6875 8.8125 C29.92566406 8.68302979 29.16382813 8.55355957 28.37890625 8.42016602 C22.35389198 7.34505913 16.42399605 5.97045644 10.5 4.4375 C9.68104248 4.22778564 8.86208496 4.01807129 8.01831055 3.80200195 C2.25104208 2.25104208 2.25104208 2.25104208 0 0 Z " fill="#433F40" transform="translate(208,216)"/>
<path d="M0 0 C0.74507813 0.00451172 1.49015625 0.00902344 2.2578125 0.01367188 C4.0885764 0.02540754 5.91929873 0.0433415 7.75 0.0625 C4.90893762 1.95654159 2.6454112 2.86375932 -0.5625 3.9375 C-8.91315414 6.94417442 -13.69951947 11.29682551 -19.25 18.0625 C-19.58 17.4025 -19.91 16.7425 -20.25 16.0625 C-20.91 15.7325 -21.57 15.4025 -22.25 15.0625 C-20.36192137 12.36524481 -19.05175356 10.93033571 -16.25 9.0625 C-18.23 9.0625 -20.21 9.0625 -22.25 9.0625 C-22.01953125 7.19921875 -22.01953125 7.19921875 -21.25 5.0625 C-19.32421875 3.83203125 -19.32421875 3.83203125 -16.9375 2.875 C-16.15761719 2.55144531 -15.37773437 2.22789062 -14.57421875 1.89453125 C-9.65847123 0.13477626 -5.19873447 -0.05970278 0 0 Z " fill="#2C2A2B" transform="translate(442.25,237.9375)"/>
<path d="M0 0 C6.42417055 9.63625582 5.13152188 21.90832124 5 33 C2.70718786 29.56078179 1.63182806 26.09653219 0.4375 22.1875 C0.21642578 21.48818359 -0.00464844 20.78886719 -0.23242188 20.06835938 C-3.59854762 9.19709525 -3.59854762 9.19709525 -2 6 C-1.34 6.66 -0.68 7.32 0 8 C-0.2784375 6.2984375 -0.2784375 6.2984375 -0.5625 4.5625 C-0.706875 3.386875 -0.85125 2.21125 -1 1 C-0.67 0.67 -0.34 0.34 0 0 Z " fill="#2C2A2B" transform="translate(516,252)"/>
<path d="M0 0 C6.36106855 0.4148523 11.61205985 2.59190623 17 6 C19 9 19 9 19 12 C18.01 12.495 18.01 12.495 17 13 C17.515625 13.78375 18.03125 14.5675 18.5625 15.375 C19.036875 16.24125 19.51125 17.1075 20 18 C19.67 18.66 19.34 19.32 19 20 C18.34 20 17.68 20 17 20 C15.8515625 18.42578125 15.8515625 18.42578125 14.625 16.3125 C10.9914995 10.31985715 7.33007947 6.28480079 1.609375 2.234375 C1.07828125 1.82703125 0.5471875 1.4196875 0 1 C0 0.67 0 0.34 0 0 Z " fill="#272727" transform="translate(198,243)"/>
<path d="M0 0 C1.07765625 0.00902344 2.1553125 0.01804688 3.265625 0.02734375 C4.08546875 0.03894531 4.9053125 0.05054688 5.75 0.0625 C2.7035416 1.67869624 -0.36147885 2.83137659 -3.625 3.9375 C-7.18893667 5.17406378 -9.28157961 6.08815843 -12.25 8.5 C-15.98430902 10.44495261 -17.14880379 9.89001882 -21.125 8.8125 C-22.84162091 8.254026 -24.55314988 7.67843848 -26.25 7.0625 C-23.08743603 4.95412402 -20.44199627 4.08349321 -16.8125 3 C-15.67941406 2.65839844 -14.54632813 2.31679687 -13.37890625 1.96484375 C-12.34636719 1.66707031 -11.31382812 1.36929688 -10.25 1.0625 C-9.58355469 0.85882813 -8.91710937 0.65515625 -8.23046875 0.4453125 C-5.46887401 -0.08848688 -2.80907579 -0.03053343 0 0 Z " fill="#2F2E2E" transform="translate(162.25,236.9375)"/>
<path d="M0 0 C15.84 1.485 15.84 1.485 32 3 C32 4.65 32 6.3 32 8 C24.73504126 7.82041675 17.93715903 6.39007516 10.9375 4.5625 C10.0921167 4.34505127 9.2467334 4.12760254 8.37573242 3.90356445 C7.58013916 3.68917725 6.7845459 3.47479004 5.96484375 3.25390625 C5.2493335 3.06127197 4.53382324 2.8686377 3.79663086 2.67016602 C2 2 2 2 0 0 Z " fill="#2A292A" transform="translate(208,216)"/>
<path d="M0 0 C0.92425781 -0.01224609 1.84851563 -0.02449219 2.80078125 -0.03710938 C4.13302734 -0.04000977 4.13302734 -0.04000977 5.4921875 -0.04296875 C6.30800293 -0.04707764 7.12381836 -0.05118652 7.96435547 -0.05541992 C10.125 0.1875 10.125 0.1875 13.125 2.1875 C13.125 2.8475 13.125 3.5075 13.125 4.1875 C7.10068564 7.19965718 -2.37606305 5.18733645 -8.875 4.1875 C-8.875 3.5275 -8.875 2.8675 -8.875 2.1875 C-9.535 1.8575 -10.195 1.5275 -10.875 1.1875 C-8.58214814 -1.10535186 -3.07916207 0.00212943 0 0 Z " fill="#ECEAEB" transform="translate(274.875,227.8125)"/>
<path d="M0 0 C9.01673651 0.04387706 15.80082758 5.72266935 22.875 10.75 C19.27317363 11.95060879 18.41076558 11.45703079 14.9453125 10.1328125 C13.98496094 9.77316406 13.02460938 9.41351563 12.03515625 9.04296875 C11.03355469 8.65753906 10.03195312 8.27210938 9 7.875 C7.02467977 7.12432707 5.04815311 6.37681948 3.0703125 5.6328125 C2.19391113 5.29652832 1.31750977 4.96024414 0.41455078 4.61376953 C-2.0875951 3.76272241 -4.524713 3.20702014 -7.125 2.75 C-4.6160813 0.2410813 -3.50104646 0.24803054 0 0 Z " fill="#2F2F2F" transform="translate(353.125,195.25)"/>
<path d="M0 0 C0.99 0 1.98 0 3 0 C3 0.66 3 1.32 3 2 C4.2065625 2.26554688 5.413125 2.53109375 6.65625 2.8046875 C8.27084609 3.16140059 9.88542871 3.51817468 11.5 3.875 C12.68722656 4.13603516 12.68722656 4.13603516 13.8984375 4.40234375 C18.95470933 5.52135473 23.98142181 6.72233445 29 8 C28.67 8.66 28.34 9.32 28 10 C21.69582833 10.349746 16.15460583 9.04072396 10.0625 7.5 C9.09248047 7.26152344 8.12246094 7.02304688 7.12304688 6.77734375 C4.74681968 6.19206612 2.37267958 5.59946749 0 5 C0 3.33333333 0 1.66666667 0 0 Z " fill="#F1EFF0" transform="translate(205,215)"/>
<path d="M0 0 C0.99 0.99 1.98 1.98 3 3 C-0.94291645 8.8845041 -5.1154959 13.05708355 -11 17 C-11.33 16.01 -11.66 15.02 -12 14 C-11.01 13.01 -10.02 12.02 -9 11 C-9.66 10.01 -10.32 9.02 -11 8 C-9.02 8 -7.04 8 -5 8 C-4.9175 7.4225 -4.835 6.845 -4.75 6.25 C-3.79468987 3.3840696 -2.21530827 2.0009236 0 0 Z " fill="#232121" transform="translate(487,297)"/>
<path d="M0 0 C8.13544686 -0.28545428 15.97649696 0.81603117 24 2 C24 2.33 24 2.66 24 3 C18.76100772 3.87266212 13.74677147 4.13410177 8.44140625 4.09765625 C7.65225327 4.0962413 6.86310028 4.09482635 6.05003357 4.09336853 C3.55414885 4.08781555 1.05835715 4.07527208 -1.4375 4.0625 C-3.13997265 4.05747891 -4.84244673 4.05291707 -6.54492188 4.04882812 C-10.69664988 4.03786158 -14.84830922 4.02062991 -19 4 C-19 3.67 -19 3.34 -19 3 C-11.74 2.67 -4.48 2.34 3 2 C2.01 1.34 1.02 0.68 0 0 Z " fill="#504E4F" transform="translate(291,234)"/>
<path d="M0 0 C0.99 0.495 0.99 0.495 2 1 C1.01 1.495 1.01 1.495 0 2 C0 1.34 0 0.68 0 0 Z M-3 2 C-2.01 2 -1.02 2 0 2 C1.125 8.75 1.125 8.75 0 11 C9.57 11 19.14 11 29 11 C29 11.33 29 11.66 29 12 C19.43 12.33 9.86 12.66 0 13 C-0.33 12.01 -0.66 11.02 -1 10 C-1.66 10 -2.32 10 -3 10 C-3.66 10.66 -4.32 11.32 -5 12 C-4.85950482 10.52031676 -4.71245174 9.04125484 -4.5625 7.5625 C-4.48128906 6.73878906 -4.40007812 5.91507813 -4.31640625 5.06640625 C-4 3 -4 3 -3 2 Z " fill="#1B191A" transform="translate(107,234)"/>
<path d="M0 0 C2.5 0.75 2.5 0.75 5.5 2.75 C2.53 3.74 -0.44 4.73 -3.5 5.75 C-3.17 6.41 -2.84 7.07 -2.5 7.75 C-11.07142857 6.75 -11.07142857 6.75 -14.5 5.75 C-14.5 5.09 -14.5 4.43 -14.5 3.75 C-8.875 1.75 -8.875 1.75 -5.5 1.75 C-2.5 -0.25 -2.5 -0.25 0 0 Z " fill="#2C292A" transform="translate(336.5,186.25)"/>
<path d="M0 0 C1.32 0.33 2.64 0.66 4 1 C3.34 4.63 2.68 8.26 2 12 C0.35 11.67 -1.3 11.34 -3 11 C-3.66 12.32 -4.32 13.64 -5 15 C-5.68359375 13.359375 -5.68359375 13.359375 -6 11 C-4.78515625 8.203125 -4.78515625 8.203125 -3.0625 5.25 C-2.49660156 4.26515625 -1.93070312 3.2803125 -1.34765625 2.265625 C-0.90292969 1.51796875 -0.45820312 0.7703125 0 0 Z " fill="#262424" transform="translate(100,234)"/>
<path d="M0 0 C0.99 0.33 1.98 0.66 3 1 C3.33 3.31 3.66 5.62 4 8 C4.66 8 5.32 8 6 8 C6.33 9.65 6.66 11.3 7 13 C4.525 14.485 4.525 14.485 2 16 C0 10.375 0 10.375 0 7 C-0.62599617 5.31763529 -1.28752268 3.6476038 -2 2 C-1.34 1.34 -0.68 0.68 0 0 Z " fill="#1F1D1D" transform="translate(216,252)"/>
<path d="M0 0 C0.99 0 1.98 0 3 0 C3 0.99 3 1.98 3 3 C3.66 3 4.32 3 5 3 C5 2.34 5 1.68 5 1 C5.66 1.33 6.32 1.66 7 2 C6 5 6 5 4 6 C3.855625 6.66 3.71125 7.32 3.5625 8 C3.376875 8.66 3.19125 9.32 3 10 C-1.17587745 11.39195915 -3.13474776 9.82323219 -7 8 C-6.67 7.01 -6.34 6.02 -6 5 C-5.34 5.33 -4.68 5.66 -4 6 C-2.33805547 6.35613097 -0.671549 6.69208308 1 7 C0.67 4.69 0.34 2.38 0 0 Z " fill="#211D1E" transform="translate(196,188)"/>
<path d="M0 0 C-3.10654766 1.6377308 -6.25745025 2.87987676 -9.5625 4.0625 C-10.51253906 4.40410156 -11.46257812 4.74570313 -12.44140625 5.09765625 C-14.28828524 5.74899831 -16.1421282 6.3807094 -18 7 C-18 6.01 -18 5.02 -18 4 C-18.99 3.34 -19.98 2.68 -21 2 C-13.87049629 0.09879901 -7.36259293 -0.22424141 0 0 Z " fill="#323232" transform="translate(168,237)"/>
<path d="M0 0 C0.80824219 0.10183594 1.61648437 0.20367187 2.44921875 0.30859375 C3.06410156 0.39238281 3.67898437 0.47617188 4.3125 0.5625 C3.3225 1.2225 2.3325 1.8825 1.3125 2.5625 C-0.85093011 4.59518602 -0.85093011 4.59518602 -2.6875 7.5625 C-6.3125 7.75 -6.3125 7.75 -9.6875 7.5625 C-9.171875 6.77875 -8.65625 5.995 -8.125 5.1875 C-7.650625 4.32125 -7.17625 3.455 -6.6875 2.5625 C-7.0175 1.9025 -7.3475 1.2425 -7.6875 0.5625 C-4.59271121 -0.46909626 -3.16118607 -0.41232862 0 0 Z " fill="#2F2D2E" transform="translate(241.6875,227.4375)"/>
<path d="M0 0 C0.99 0 1.98 0 3 0 C3 0.66 3 1.32 3 2 C7.455 2.99 7.455 2.99 12 4 C12 4.66 12 5.32 12 6 C8.57056481 7.18771723 6.62215325 6.80226223 3.25 5.5625 C2.45078125 5.27503906 1.6515625 4.98757812 0.828125 4.69140625 C0.22484375 4.46324219 -0.3784375 4.23507813 -1 4 C-0.67 2.68 -0.34 1.36 0 0 Z " fill="#E7E6E6" transform="translate(205,215)"/>
<path d="M0 0 C2.44989101 3.74235319 2.23086143 7.44225419 2.125 11.75 C2.11597656 12.44738281 2.10695313 13.14476562 2.09765625 13.86328125 C2.07419888 15.57566958 2.03833104 17.28788004 2 19 C-1.8331077 13.25033845 -1.25900441 6.57480081 0 0 Z " fill="#262626" transform="translate(519,266)"/>
<path d="M0 0 C2.64 0 5.28 0 8 0 C8 1.32 8 2.64 8 4 C4.37 3.67 0.74 3.34 -3 3 C-2.01 2.67 -1.02 2.34 0 2 C0 1.34 0 0.68 0 0 Z " fill="#343132" transform="translate(232,220)"/>
<path d="M0 0 C1.65 0 3.3 0 5 0 C5 0.66 5 1.32 5 2 C5.66 2.33 6.32 2.66 7 3 C6.01 3 5.02 3 4 3 C4.33 4.65 4.66 6.3 5 8 C3.02 7.34 1.04 6.68 -1 6 C-0.67 4.02 -0.34 2.04 0 0 Z " fill="#1F1D1E" transform="translate(176,214)"/>
<path d="M0 0 C-0.33 0.66 -0.66 1.32 -1 2 C-5.29 2 -9.58 2 -14 2 C-14.33 1.34 -14.66 0.68 -15 0 C-4.44191344 -1.33257403 -4.44191344 -1.33257403 0 0 Z " fill="#343031" transform="translate(467,316)"/>
<path d="M0 0 C2.29013653 3.4352048 2.17842973 4.985331 2 9 C0.02 9.66 -1.96 10.32 -4 11 C-3.52269162 9.5410574 -3.04308958 8.08286504 -2.5625 6.625 C-2.29566406 5.81289063 -2.02882813 5.00078125 -1.75390625 4.1640625 C-1 2 -1 2 0 0 Z " fill="#2E2E2E" transform="translate(405,261)"/>
<path d="M0 0 C0.845625 0.04125 1.69125 0.0825 2.5625 0.125 C3.5525 0.125 4.5425 0.125 5.5625 0.125 C4.75 2.5625 4.75 2.5625 3.5625 5.125 C2.5725 5.455 1.5825 5.785 0.5625 6.125 C-2.125 4.1875 -2.125 4.1875 -4.4375 2.125 C-2.4375 0.125 -2.4375 0.125 0 0 Z " fill="#2A2829" transform="translate(494.4375,234.875)"/>
<path d="M0 0 C0.66 0.66 1.32 1.32 2 2 C1.8125 5 1.8125 5 1 8 C0.01 8.66 -0.98 9.32 -2 10 C-2.6875 6.6875 -2.6875 6.6875 -3 3 C-1.5625 1.0625 -1.5625 1.0625 0 0 Z " fill="#2B2829" transform="translate(206,270)"/>
<path d="M0 0 C0.66 0 1.32 0 2 0 C2 1.32 2 2.64 2 4 C2.99 4.66 3.98 5.32 5 6 C2.36 6.66 -0.28 7.32 -3 8 C-3 6.68 -3 5.36 -3 4 C-2.34 4 -1.68 4 -1 4 C-0.67 2.68 -0.34 1.36 0 0 Z " fill="#2D2829" transform="translate(203,189)"/>
<path d="M0 0 C3.96 0 7.92 0 12 0 C7.48332093 3.01111938 4.3360009 3.10067926 -1 3 C-0.67 2.01 -0.34 1.02 0 0 Z " fill="#282425" transform="translate(438,238)"/>
<path d="M0 0 C4.3177458 0.50797009 8.03302114 1.19682779 12 3 C12 3.33 12 3.66 12 4 C10.35 4 8.7 4 7 4 C6.67 4.66 6.34 5.32 6 6 C3.97945196 4.35830472 1.97956942 2.69088222 0 1 C0 0.67 0 0.34 0 0 Z " fill="#303030" transform="translate(198,243)"/>
<path d="M0 0 C1 2 2 4 3 6 C0.03 8.475 0.03 8.475 -3 11 C-2.53199289 6.94393835 -2.12046792 3.53411321 0 0 Z " fill="#353334" transform="translate(428,266)"/>
<path d="M0 0 C2.0625 0.4375 2.0625 0.4375 4 1 C3.67 2.32 3.34 3.64 3 5 C1.02 5.33 -0.96 5.66 -3 6 C-1.125 1.125 -1.125 1.125 0 0 Z " fill="#282627" transform="translate(409,255)"/>
<path d="M0 0 C2.52588702 2.36292656 3.88820837 3.66462511 5 7 C3.02 7.99 3.02 7.99 1 9 C0.08941469 5.92677456 -0.08886184 3.19902639 0 0 Z " fill="#2D292A" transform="translate(509,240)"/>
<path d="M0 0 C0.9075 0.226875 1.815 0.45375 2.75 0.6875 C1.76 1.0175 0.77 1.3475 -0.25 1.6875 C-0.98323796 3.70258358 -0.98323796 3.70258358 -1.25 5.6875 C-4.25 4.6875 -4.25 4.6875 -7.25 2.6875 C-4.61280971 0.1517401 -3.74095095 -0.35970682 0 0 Z " fill="#1F1B1C" transform="translate(433.25,240.3125)"/>
<path d="M0 0 C0.66 0.33 1.32 0.66 2 1 C1.34 2.65 0.68 4.3 0 6 C-0.33 5.34 -0.66 4.68 -1 4 C-2.32 4.33 -3.64 4.66 -5 5 C-4.1875 3.0625 -4.1875 3.0625 -3 1 C-2.01 0.67 -1.02 0.34 0 0 Z " fill="#292728" transform="translate(147,266)"/>
<path d="M0 0 C-0.99 0.495 -0.99 0.495 -2 1 C-2 1.99 -2 2.98 -2 4 C-2 4.33 -2 4.66 -2 5 C-4.31 4.67 -6.62 4.34 -9 4 C-6.35287314 0.09233654 -4.86783735 -1.62261245 0 0 Z " fill="#1E191B" transform="translate(199,223)"/>
<path d="M0 0 C-4.625 4.875 -4.625 4.875 -8 6 C-7.625 3.5625 -7.625 3.5625 -7 1 C-4.53721199 -0.231394 -2.7204945 -0.07159196 0 0 Z " fill="#2F2D2D" transform="translate(483,308)"/>
<path d="M0 0 C0.99 0.99 1.98 1.98 3 3 C1.02 5.97 1.02 5.97 -1 9 C-1.66 8.01 -2.32 7.02 -3 6 C-1.65517241 1.65517241 -1.65517241 1.65517241 0 0 Z " fill="#2C292A" transform="translate(487,297)"/>
<path d="M0 0 C0.98120464 3.05263664 0.98120464 4.94736336 0 8 C-1.9375 7.625 -1.9375 7.625 -4 7 C-4.33 6.34 -4.66 5.68 -5 5 C-4.01 5 -3.02 5 -2 5 C-1.7834375 4.0409375 -1.7834375 4.0409375 -1.5625 3.0625 C-1 1 -1 1 0 0 Z " fill="#2B2728" transform="translate(150,297)"/>
<path d="M0 0 C0.95465783 2.16967689 1.14401212 3.56328793 0.3984375 5.82421875 C-0.35870385 7.5684743 -1.17609198 9.28627131 -2 11 C-2.66 10.67 -3.32 10.34 -4 10 C-3.43454163 6.04179141 -2.19097652 3.3340947 0 0 Z " fill="#373535" transform="translate(98,238)"/>
<path d="M0 0 C-0.33 0.99 -0.66 1.98 -1 3 C-4.3 2.67 -7.6 2.34 -11 2 C-6.78370866 -0.10814567 -4.60209225 -0.17700355 0 0 Z " fill="#DCDADB" transform="translate(240,224)"/>
<path d="M0 0 C0.66 1.65 1.32 3.3 2 5 C-0.64 4.67 -3.28 4.34 -6 4 C-6 3.34 -6 2.68 -6 2 C-2.25 0 -2.25 0 0 0 Z " fill="#343031" transform="translate(328,188)"/>
<path d="M0 0 C1.85776765 3.13498292 2.20140476 5.37471432 2 9 C0.68 9 -0.64 9 -2 9 C-1.41196203 5.97580475 -0.77321882 2.98241547 0 0 Z " fill="#292828" transform="translate(491,284)"/>
<path d="M0 0 C2.97 0 5.94 0 9 0 C9.33 0.99 9.66 1.98 10 3 C8.5199159 2.88637738 7.04089926 2.75877092 5.5625 2.625 C4.73878906 2.55539063 3.91507813 2.48578125 3.06640625 2.4140625 C2.38449219 2.27742187 1.70257813 2.14078125 1 2 C0.67 1.34 0.34 0.68 0 0 Z " fill="#373536" transform="translate(210,230)"/>
<path d="M0 0 C1.53202706 0.25195908 3.05257128 0.57596777 4.5625 0.9375 C5.38878906 1.13214844 6.21507812 1.32679688 7.06640625 1.52734375 C8.02353516 1.76130859 8.02353516 1.76130859 9 2 C6.64046906 4.35953094 5.22104383 4.49141413 2 5 C1.01 3.68 0.02 2.36 -1 1 C-0.67 0.67 -0.34 0.34 0 0 Z " fill="#363233" transform="translate(201,218)"/>
<path d="M0 0 C0.66 0 1.32 0 2 0 C2 0.99 2 1.98 2 3 C2.99 3.33 3.98 3.66 5 4 C5.6875 6.0625 5.6875 6.0625 6 8 C4.35 7.67 2.7 7.34 1 7 C0.67 4.69 0.34 2.38 0 0 Z " fill="#2B292A" transform="translate(97,209)"/>
<path d="M0 0 C2 1.3125 2 1.3125 4 3 C4 3.99 4 4.98 4 6 C4.66 6.33 5.32 6.66 6 7 C5.01 8.485 5.01 8.485 4 10 C2.35 7.03 0.7 4.06 -1 1 C-0.67 0.67 -0.34 0.34 0 0 Z " fill="#2F2B2C" transform="translate(506,248)"/>
<path d="M0 0 C0.66 1.32 1.32 2.64 2 4 C1.01 5.32 0.02 6.64 -1 8 C-1.66 7.34 -2.32 6.68 -3 6 C-1.125 1.125 -1.125 1.125 0 0 Z " fill="#2D282A" transform="translate(109,234)"/>
<path d="M0 0 C3.375 -0.125 3.375 -0.125 7 0 C7.66 0.66 8.32 1.32 9 2 C6.66001872 2.77999376 4.39100534 3.42036234 2 4 C0.88625 4.2784375 0.88625 4.2784375 -0.25 4.5625 C-0.8275 4.706875 -1.405 4.85125 -2 5 C-1.67 4.34 -1.34 3.68 -1 3 C-0.34 3 0.32 3 1 3 C0.67 2.01 0.34 1.02 0 0 Z " fill="#1B191A" transform="translate(177,202)"/>
<path d="M0 0 C2.12508244 3.18762365 2.5020163 5.26512223 3 9 C2.01 8.67 1.02 8.34 0 8 C-0.38063221 5.6739143 -0.71269945 3.33944736 -1 1 C-0.67 0.67 -0.34 0.34 0 0 Z " fill="#3A3939" transform="translate(516,252)"/>
<path d="M0 0 C1.98 0.99 3.96 1.98 6 3 C6 3.99 6 4.98 6 6 C3.5625 5.25 3.5625 5.25 1 4 C0.1875 1.875 0.1875 1.875 0 0 Z " fill="#2B2B2B" transform="translate(210,247)"/>
<path d="M0 0 C1.65 0 3.3 0 5 0 C4.34 1.65 3.68 3.3 3 5 C1.68 4.34 0.36 3.68 -1 3 C-0.67 2.01 -0.34 1.02 0 0 Z " fill="#1D1D1D" transform="translate(146,240)"/>
<path d="M0 0 C0.66 0 1.32 0 2 0 C2.33 0.66 2.66 1.32 3 2 C3.99 2 4.98 2 6 2 C5.67 2.99 5.34 3.98 5 5 C2.9375 5.6875 2.9375 5.6875 1 6 C0.34 4.35 -0.32 2.7 -1 1 C-0.67 0.67 -0.34 0.34 0 0 Z " fill="#1D1A1B" transform="translate(496,231)"/>
<path d="M0 0 C1.23556641 0.01740234 1.23556641 0.01740234 2.49609375 0.03515625 C3.32238281 0.04417969 4.14867187 0.05320313 5 0.0625 C5.63808594 0.07410156 6.27617187 0.08570313 6.93359375 0.09765625 C5.94359375 1.58265625 5.94359375 1.58265625 4.93359375 3.09765625 C1.93359375 3.41015625 1.93359375 3.41015625 -1.06640625 3.09765625 C-1.72640625 2.43765625 -2.38640625 1.77765625 -3.06640625 1.09765625 C-2.06640625 0.09765625 -2.06640625 0.09765625 0 0 Z " fill="#FDFCFD" transform="translate(267.06640625,227.90234375)"/>
<path d="M0 0 C6.75 -0.125 6.75 -0.125 9 1 C9 1.66 9 2.32 9 3 C2.84765625 2.4140625 2.84765625 2.4140625 1 2 C0.67 1.34 0.34 0.68 0 0 Z " fill="#383536" transform="translate(467,229)"/>
<path d="M0 0 C-1.65 1.65 -3.3 3.3 -5 5 C-5.33 3.35 -5.66 1.7 -6 0 C-3 -1 -3 -1 0 0 Z " fill="#333031" transform="translate(431,246)"/>
<path d="M0 0 C-1.3125 2 -1.3125 2 -3 4 C-3.99 4 -4.98 4 -6 4 C-6 3.34 -6 2.68 -6 2 C-6.66 1.67 -7.32 1.34 -8 1 C-2.25 -1.125 -2.25 -1.125 0 0 Z " fill="#3A3738" transform="translate(174,201)"/>
<path d="M0 0 C0.33 0.66 0.66 1.32 1 2 C0.0625 4.125 0.0625 4.125 -1 6 C-2.32 5.01 -3.64 4.02 -5 3 C-3 1 -3 1 0 0 Z " fill="#1E1B1C" transform="translate(513,247)"/>
<path d="M0 0 C-2 3 -2 3 -4.125 3.6875 C-5.053125 3.8421875 -5.053125 3.8421875 -6 4 C-6 3.34 -6 2.68 -6 2 C-6.66 1.67 -7.32 1.34 -8 1 C-5.07175348 0.02391783 -3.04386724 -0.08226668 0 0 Z " fill="#383435" transform="translate(170,249)"/>
<path d="M0 0 C1.65 0 3.3 0 5 0 C4.67 1.65 4.34 3.3 4 5 C2 3.625 2 3.625 0 2 C0 1.34 0 0.68 0 0 Z " fill="#1C1C1C" transform="translate(205,247)"/>
<path d="M0 0 C0.66 0 1.32 0 2 0 C2.33 0.66 2.66 1.32 3 2 C4.32 2 5.64 2 7 2 C6.67 2.99 6.34 3.98 6 5 C5.01 5.33 4.02 5.66 3 6 C0 1.125 0 1.125 0 0 Z " fill="#2A2829" transform="translate(500,242)"/>
<path d="M0 0 C1.65 0.33 3.3 0.66 5 1 C3.68 1.99 2.36 2.98 1 4 C-0.32 3.34 -1.64 2.68 -3 2 C-2.01 2 -1.02 2 0 2 C0 1.34 0 0.68 0 0 Z " fill="#201C1D" transform="translate(171,203)"/>
<path d="M0 0 C2 0.6875 2 0.6875 4 2.6875 C1.36 2.6875 -1.28 2.6875 -4 2.6875 C-4 2.0275 -4 1.3675 -4 0.6875 C-2 -0.3125 -2 -0.3125 0 0 Z " fill="#2C2C2C" transform="translate(366,200.3125)"/>
</svg>
